<svg width="20" height="21" viewBox="0 0 20 21" fill="none" xmlns="http://www.w3.org/2000/svg">
<rect y="0.5" width="20" height="20" rx="10" fill="#232333"></rect>
<path fill-rule="evenodd" clip-rule="evenodd" d="M5.4585 7.99987C5.4585 7.79276 5.62639 7.62487 5.8335 7.62487H7.12517L7.12517 6.33319C7.12517 6.12608 7.29307 5.95819 7.50017 5.95819C7.70728 5.95819 7.87517 6.12608 7.87517 6.33319V7.99987C7.87517 8.20697 7.70728 8.37487 7.50017 8.37487L5.8335 8.37487C5.62639 8.37487 5.4585 8.20697 5.4585 7.99987ZM12.5002 15.0416C12.7073 15.0416 12.8752 14.8737 12.8752 14.6666V13.3749H14.1669C14.374 13.3749 14.5419 13.207 14.5419 12.9999C14.5419 12.7928 14.374 12.6249 14.1669 12.6249H12.5002C12.2931 12.6249 12.1252 12.7928 12.1252 12.9999V14.6666C12.1252 14.8737 12.2931 15.0416 12.5002 15.0416ZM11.5154 9.51509C11.6618 9.36864 11.6618 9.13121 11.5154 8.98476C11.3689 8.83831 11.1315 8.83831 10.985 8.98476L8.48501 11.4848C8.33856 11.6312 8.33856 11.8687 8.48501 12.0151C8.63145 12.1616 8.86889 12.1616 9.01534 12.0151L11.5154 9.51509ZM13.0684 7.43177C12.2944 6.65773 11.0395 6.65773 10.2654 7.43177L9.43209 8.2651C9.28564 8.41155 9.0482 8.41155 8.90176 8.2651C8.75531 8.11866 8.75531 7.88122 8.90176 7.73477L9.73509 6.90144C10.802 5.83451 12.5319 5.83451 13.5988 6.90144C14.6657 7.96836 14.6657 9.69819 13.5988 10.7651L12.7654 11.5985C12.619 11.7449 12.3816 11.7449 12.2351 11.5985C12.0887 11.452 12.0887 11.2146 12.2351 11.0681L13.0684 10.2348C13.8425 9.46076 13.8425 8.2058 13.0684 7.43177ZM9.73495 13.5681C8.96092 14.3421 7.70596 14.3421 6.93193 13.5681C6.15789 12.7941 6.15789 11.5391 6.93193 10.7651L7.76527 9.93173C7.91171 9.78528 7.91171 9.54785 7.76527 9.4014C7.61882 9.25495 7.38138 9.25495 7.23494 9.4014L6.4016 10.2347C5.33467 11.3017 5.33467 13.0315 6.4016 14.0984C7.46852 15.1653 9.19836 15.1653 10.2653 14.0984L11.0986 13.2651C11.2451 13.1186 11.2451 12.8812 11.0986 12.7348C10.9522 12.5883 10.7147 12.5883 10.5683 12.7348L9.73495 13.5681Z" fill="#57E5B2"></path>
</svg>